<svg xmlns="http://www.w3.org/2000/svg" width="598px" height="128px">
	<path
		id="box"
		vector-effect="non-scaling-stroke"
		d="M1.892 51.846C3 40.096 7.221 19.64 8.825 18.25c2.533-2.195 54.039-7.361 114.27-11.462 4.124-.28 10.65-.742 14.5-1.025C178.1 2.78 215.82 1.869 298.998 1.869c83.18 0 120.9.912 161.406 3.894 3.85.283 10.375.744 14.5 1.025 60.23 4.1 111.736 9.267 114.269 11.462 1.604 1.39 5.825 21.846 6.921 33.615.885 9.17.89 14.976.011 24.29-1.107 11.749-5.328 32.205-6.932 33.595-2.533 2.195-54.04 7.361-114.27 11.462-4.125.28-10.65.742-14.5 1.025-40.506 2.982-78.226 3.894-161.405 3.894s-120.899-.912-161.405-3.894c-3.85-.283-10.375-.744-14.5-1.025-60.23-4.1-111.736-9.267-114.27-11.462C7.222 108.36 3 87.904 1.893 76.154c-.879-9.313-.873-15.12.022-24.27"
		fill="white"
		fill-opacity="0.78431373"
		stroke="white"
		stroke-width="2px"
		stroke-opacity="1" />
</svg>
